<svg xmlns="http://www.w3.org/2000/svg" width="1792" height="1792" id="connect">
  <path fill="white" d="M1792 897.125q0 18.375-11.375 31.938-11.375 13.562-28.875 17.062l-179.375 311.5q2.625 7.875 2.625 15.75 0 17.5-10.938 31.063-10.937 13.562-28.437 17.062l-168.875 294.875q2.625 7 2.625 14 0 20.125-14.438 35-14.437 14.875-35.437 14.875-21.875 0-35.875-15.75h-350Q918.75 1682 896 1682t-37.625-17.5H509.25q-14.875 17.5-37.625 17.5-20.125 0-35-14.438-14.875-14.437-14.875-35.437 0-7 3.5-17.5L256.375 1321.5q-17.5-3.5-28.438-17.063Q217 1290.876 217 1273.376q0-7.875 2.625-15.75l-180.25-311.5q-17.5-4.375-28.438-17.938Q0 914.625 0 897.125q0-18.375 11.813-31.938 11.812-13.562 29.312-17.062l174.125-301q0-.875-.438-2.625-.437-1.75-.437-2.625 0-31.5 29.75-44.625L427 179.625q-3.5-8.75-3.5-15.75 0-21 14.875-35.438Q453.25 114 473.375 114q22.75 0 38.5 18.375h346.5Q872.375 114 896 114t37.625 18.375h348.25q15.75-18.375 38.5-18.375 20.125 0 35 14.438 14.875 14.437 14.875 35.437 0 5.25-3.5 15.75l181.125 313.25q20.125.875 34.125 15.313 14 14.437 14 33.687 0 11.375-6.125 23.625L1753.5 849q16.625 3.5 27.563 17.063Q1792 879.625 1792 897.125ZM930.125 1596.25H1270.5L971.25 1286.5H846.125l-299.25 309.75h315q15.75-14 34.125-14t34.125 14zM98 885.75q.875 3.5.875 11.375 0 8.75-1.75 13.125l182 315q1.75 0 3.938.875 2.187.875 4.812 2.188l4.375 2.187 164.5-174.125V752.75L293.125 583q-11.375 7-25.375 8.75zm764.75-686h-339.5l166.25 175 484.75-175h-245q-14 14-33.25 14t-33.25-14zm615.125 1060.5q.875-5.25 4.375-9.625l-56-59.5-14.875 69.125h66.5zm-92.75 0 19.25-91.875-220.5-232.75-259 268.625 55.125 56h405.125zm-77 322 14-24.5L1379 1286.5h-373.625l291.375 300.125q7-3.5 11.375-4.375zm-802.375 14h4.375l299.25-309.75H483v293.125l3.5 5.25q12.25 4.375 19.25 11.375zm-22.75-336h351.75l56-57.75-270.375-280.875L483 1066.875v193.375zm-168.875 0H456.75v-165.375l-147 154.875q3.5 7 4.375 10.5zm-.875-721.875q0 .875.438 1.75.437.875.437 1.75 0 14-7 25.375L456.75 722.125V486.75zM483 477.125V749.25l133.875 137.375 259.875-274.75-195.125-206.5Zm3.5-266-3.5 7v231l179.375-64.75L495.25 208.5q-5.25 1.75-8.75 2.625zm779.625-11.375h-14l-543.375 196 186.375 196.875zm-371 430.5L635.25 905.875 907.375 1185l259-268.625zM602 903.25 483 779.875v248.5zm306.25 318.5-36.75 38.5h74.375zm294-304.5 208.25 219.625 115.5-546-2.625-4.375-.875-.875zm301-350q-7-11.375-7-25.375v-1.75l-189-329q-4.375-.875-11.375-4.375L913.5 611.875 1184.75 898Zm-1046.5-108.5V263.625l-142.625 246.75zm0 827.75H314.125l142.625 247.625V1286.5zm949.375 0-42 198.625 113.75-198.625h-71.75zm106.75-61.25L1694 909.375q-1.75-8.75-1.75-12.25 0-.875 2.625-14l-149.625-259-112.875 535.5 67.375 71.75q4.375-2.625 13.125-6.125z"></path>
</svg>
